<svg xmlns="http://www.w3.org/2000/svg" width="756" height="630.4" viewBox="0 0 756 630.4"><g transform="translate(-130.8 -142.6)"><g opacity="0.6"><path d="M714.8,399.9l-26.9-46.6,26.9-46.5h53.7l26.9,46.5-26.9,46.6Z" fill="none" stroke="#424242" stroke-miterlimit="10" stroke-width="6"/><path d="M621.7,346.2l-26.9-46.6,26.9-46.5h53.7l26.9,46.5-26.9,46.6Z" fill="#424242" stroke="#424242" stroke-miterlimit="10" stroke-width="6"/><path d="M621.7,238.7l-26.9-46.5,26.9-46.6h53.7l26.9,46.6-26.9,46.5Z" fill="none" stroke="#424242" stroke-miterlimit="10" stroke-width="6"/><path d="M528.5,292.5l-26.8-46.6,26.8-46.6h53.8l26.8,46.6-26.8,46.6Z" fill="#424242" stroke="#424242" stroke-miterlimit="10" stroke-width="6"/><path d="M435.4,346.2l-26.9-46.6,26.9-46.5h53.7L516,299.6l-26.9,46.6Z" fill="none" stroke="#424242" stroke-miterlimit="10" stroke-width="6"/><path d="M249.2,346.2l-26.9-46.6,26.9-46.5h53.7l26.8,46.5-26.8,46.6Z" fill="#424242" stroke="#424242" stroke-miterlimit="10" stroke-width="6"/></g><g opacity="0.6"><path d="M621.7,453.2l-26.9-46.5,26.9-46.6h53.7l26.9,46.6-26.9,46.5Z" fill="none" stroke="#424242" stroke-miterlimit="10" stroke-width="6"/><path d="M528.5,614.4l-26.8-46.6,26.8-46.5h53.8l26.8,46.5-26.8,46.6Z" fill="none" stroke="#424242" stroke-miterlimit="10" stroke-width="6"/></g><path d="M738.9,737h0a18.992,18.992,0,0,1-19-19V569h38V718A18.992,18.992,0,0,1,738.9,737Z" fill="#fff"/><path d="M760.9,553h-44a8.023,8.023,0,0,0-8,8h0a8.023,8.023,0,0,0,8,8h44a8.023,8.023,0,0,0,8-8h0A8.024,8.024,0,0,0,760.9,553Z" fill="#d8d8d8"/><path d="M738.9,737h0a18.992,18.992,0,0,1-19-19V569h38V718A18.992,18.992,0,0,1,738.9,737Z" fill="none" stroke="#133b4f" stroke-linecap="round" stroke-linejoin="round" stroke-miterlimit="10" stroke-width="4"/><path d="M760.9,553h-44a8.023,8.023,0,0,0-8,8h0a8.023,8.023,0,0,0,8,8h44a8.023,8.023,0,0,0,8-8h0A8.024,8.024,0,0,0,760.9,553Z" fill="none" stroke="#133b4f" stroke-linecap="round" stroke-linejoin="round" stroke-miterlimit="10" stroke-width="4"/><path d="M728.9,664v54a10,10,0,0,0,20,0V664Z" fill="#ec1ce4"/><path d="M728.9,664v54a10,10,0,0,0,20,0V664Z" fill="none" stroke="#133b4f" stroke-linecap="round" stroke-linejoin="round" stroke-miterlimit="10" stroke-width="4"/><circle cx="3.8" cy="3.8" r="3.8" transform="translate(716.1 509.5)" fill="#ec1ce4"/><circle cx="3.2" cy="3.2" r="3.2" transform="translate(730.6 527.6)" fill="#ec1ce4"/><circle cx="7.2" cy="7.2" r="7.2" transform="translate(743.2 474.1)" fill="#ec1ce4"/><circle cx="6.2" cy="6.2" r="6.2" transform="translate(740 504.7)" fill="#ec1ce4"/><circle cx="3.8" cy="3.8" r="3.8" transform="translate(716.1 509.5)" fill="none" stroke="#133b4f" stroke-linecap="round" stroke-linejoin="round" stroke-miterlimit="10" stroke-width="4"/><circle cx="3.2" cy="3.2" r="3.2" transform="translate(730.6 527.6)" fill="none" stroke="#133b4f" stroke-linecap="round" stroke-linejoin="round" stroke-miterlimit="10" stroke-width="4"/><circle cx="2.1" cy="2.1" r="2.1" transform="translate(729.8 495.4)" fill="none" stroke="#133b4f" stroke-linecap="round" stroke-linejoin="round" stroke-miterlimit="10" stroke-width="4"/><circle cx="7.2" cy="7.2" r="7.2" transform="translate(743.2 474.1)" fill="none" stroke="#133b4f" stroke-linecap="round" stroke-linejoin="round" stroke-miterlimit="10" stroke-width="4"/><circle cx="6.2" cy="6.2" r="6.2" transform="translate(740 504.7)" fill="none" stroke="#133b4f" stroke-linecap="round" stroke-linejoin="round" stroke-miterlimit="10" stroke-width="4"/><circle cx="7.2" cy="7.2" r="7.2" transform="translate(728.2 617.2)" fill="#ec1ce4"/><circle cx="7.2" cy="7.2" r="7.2" transform="translate(728.2 617.2)" fill="none" stroke="#133b4f" stroke-linecap="round" stroke-linejoin="round" stroke-miterlimit="10" stroke-width="4"/><circle cx="3.1" cy="3.1" r="3.1" transform="translate(738.5 646)" fill="#ec1ce4"/><circle cx="3.1" cy="3.1" r="3.1" transform="translate(738.5 646)" fill="none" stroke="#133b4f" stroke-linecap="round" stroke-linejoin="round" stroke-miterlimit="10" stroke-width="4"/><circle cx="4.3" cy="4.3" r="4.3" transform="translate(741.4 578.7)" fill="#ec1ce4"/><circle cx="4.3" cy="4.3" r="4.3" transform="translate(741.4 578.7)" fill="none" stroke="#133b4f" stroke-linecap="round" stroke-linejoin="round" stroke-miterlimit="10" stroke-width="4"/><circle cx="1.6" cy="1.6" r="1.6" transform="translate(729 574.7)" fill="#67cc70"/><circle cx="1.6" cy="1.6" r="1.6" transform="translate(729 574.7)" fill="none" stroke="#133b4f" stroke-linecap="round" stroke-linejoin="round" stroke-miterlimit="10" stroke-width="4"/><circle cx="1.6" cy="1.6" r="1.6" transform="translate(738.5 678)" fill="#133b4f"/><circle cx="2.6" cy="2.6" r="2.6" transform="translate(728.9 693.8)" fill="#133b4f"/><circle cx="3.8" cy="3.8" r="3.8" transform="translate(739.4 705.6)" fill="#133b4f"/><circle cx="0.6" cy="0.6" r="0.6" transform="translate(737 674.3)" fill="#133b4f"/><path d="M573.4,604a4.012,4.012,0,0,1-4-4V405.5a29.5,29.5,0,0,0-59,0v44.2a67.3,67.3,0,1,1-134.6,0V354.1a41,41,0,0,0-82,0V395a4,4,0,0,1-8,0V354.1a49,49,0,0,1,98,0v95.6a59.3,59.3,0,1,0,118.6,0V405.5a37.5,37.5,0,0,1,75,0V600A4.012,4.012,0,0,1,573.4,604Z" fill="#fff"/><path d="M573.4,604a4.012,4.012,0,0,1-4-4V405.5a29.5,29.5,0,0,0-59,0v44.2a67.3,67.3,0,1,1-134.6,0V354.1a41,41,0,0,0-82,0V395a4,4,0,0,1-8,0V354.1a49,49,0,0,1,98,0v95.6a59.3,59.3,0,1,0,118.6,0V405.5a37.5,37.5,0,0,1,75,0V600A4.012,4.012,0,0,1,573.4,604Z" fill="none" stroke="#133b4f" stroke-linecap="round" stroke-linejoin="round" stroke-miterlimit="10" stroke-width="4"/><path d="M435.7,770h-20V200a10.029,10.029,0,0,1,10-10h0a10.029,10.029,0,0,1,10,10Z" fill="#fff"/><path d="M435.7,770h-20V200a10.029,10.029,0,0,1,10-10h0a10.029,10.029,0,0,1,10,10Z" fill="none" stroke="#133b4f" stroke-linecap="round" stroke-linejoin="round" stroke-miterlimit="10" stroke-width="4"/><path d="M470.6,445.6H442.8v-10h27.8a4.951,4.951,0,0,1,5,5h0A5.081,5.081,0,0,1,470.6,445.6Z" fill="#6f8699"/><path d="M470.6,445.6H442.8v-10h27.8a4.951,4.951,0,0,1,5,5h0A5.081,5.081,0,0,1,470.6,445.6Z" fill="none" stroke="#133b4f" stroke-linecap="round" stroke-linejoin="round" stroke-miterlimit="10" stroke-width="4"/><rect width="320" height="17" transform="translate(500.1 753)" fill="#dabc95"/><rect width="320" height="17" transform="translate(500.1 753)" fill="none" stroke="#133b4f" stroke-linecap="round" stroke-linejoin="round" stroke-miterlimit="10" stroke-width="4"/><rect width="10" height="150" transform="translate(516.3 603)" fill="#d6d9e2"/><rect width="10" height="150" transform="translate(516.3 603)" fill="none" stroke="#133b4f" stroke-linecap="round" stroke-linejoin="round" stroke-miterlimit="10" stroke-width="4"/><rect width="10" height="150" transform="translate(794 603)" fill="#d6d9e2"/><rect width="10" height="150" transform="translate(794 603)" fill="none" stroke="#133b4f" stroke-linecap="round" stroke-linejoin="round" stroke-miterlimit="10" stroke-width="4"/><path d="M285.2,659.1s-.4-9.3-2-13.7c4.7,2.1,9.1,11.7,9.1,11.7Z" fill="none" stroke="#133b4f" stroke-miterlimit="10" stroke-width="4"/><rect width="123.5" height="22" transform="translate(352.1 748)" fill="#6f8699"/><rect width="123.5" height="22" transform="translate(352.1 748)" fill="none" stroke="#133b4f" stroke-linecap="round" stroke-linejoin="round" stroke-miterlimit="10" stroke-width="4"/><path d="M321.9,722.9l-21.3-3.6V703.2h8.5a6.394,6.394,0,0,0,6.5-6,6.213,6.213,0,0,0-6.2-6.4H270.5a6.394,6.394,0,0,0-6.5,6,6.213,6.213,0,0,0,6.2,6.4H279v16.1l-21.3,3.6a8.957,8.957,0,0,0-7.3,10.3l5.2,28.8a9.783,9.783,0,0,0,9.7,8.1h49.2a9.942,9.942,0,0,0,9.7-8.1l5.2-28.8A9.175,9.175,0,0,0,321.9,722.9Z" fill="#fff"/><path d="M321.9,722.9l-21.3-3.6V703.2h8.5a6.394,6.394,0,0,0,6.5-6,6.213,6.213,0,0,0-6.2-6.4H270.5a6.394,6.394,0,0,0-6.5,6,6.213,6.213,0,0,0,6.2,6.4H279v16.1l-21.3,3.6a8.957,8.957,0,0,0-7.3,10.3l5.2,28.8a9.783,9.783,0,0,0,9.7,8.1h49.2a9.942,9.942,0,0,0,9.7-8.1l5.2-28.8A9.175,9.175,0,0,0,321.9,722.9Z" fill="none" stroke="#133b4f" stroke-linecap="round" stroke-linejoin="round" stroke-miterlimit="10" stroke-width="4"/><path d="M305.6,665c-4.1-13.2-12.3-20.4-15.8-24-1.9,15-17.6,19.7-16,33.8,1.3,11.5,12.3,15,17.7,14.1C302.8,687,308.8,675.2,305.6,665Z" fill="#ff815f"/><path d="M305.6,665c-4.1-13.2-12.3-20.4-15.8-24-1.9,15-17.6,19.7-16,33.8,1.3,11.5,12.3,15,17.7,14.1C302.8,687,308.8,675.2,305.6,665Z" fill="none" stroke="#133b4f" stroke-miterlimit="10" stroke-width="4"/><path d="M296.5,675.2a24.958,24.958,0,0,0-6.8-12.6c-1,7.9-9.2,10.3-8.4,17.7a8.363,8.363,0,0,0,9.3,7.4C296.5,686.7,297.4,679.3,296.5,675.2Z" fill="#fb2"/><path d="M297.4,674.1c-1.6-6.7-5.9-9.7-7.7-11.6-1,7.9-9.2,10.3-8.4,17.7a8.363,8.363,0,0,0,9.3,7.4C296.5,686.7,298.4,678.3,297.4,674.1Z" fill="none" stroke="#133b4f" stroke-miterlimit="10" stroke-width="4"/><path d="M261.4,738.3l3.4,18.8a3.441,3.441,0,0,0,3.4,2.8h43.1a3.441,3.441,0,0,0,3.4-2.8l3.4-18.8Z" fill="#67cf70"/><path d="M261.4,738.3l3.4,18.8a3.441,3.441,0,0,0,3.4,2.8h43.1a3.441,3.441,0,0,0,3.4-2.8l3.4-18.8Z" fill="none" stroke="#133b4f" stroke-linecap="round" stroke-linejoin="round" stroke-miterlimit="10" stroke-width="4"/><line y2="60.2" transform="translate(289.8 690.8)" fill="none" stroke="#133b4f" stroke-linecap="round" stroke-linejoin="round" stroke-miterlimit="10" stroke-width="4"/><path d="M306.8,465.1v-58h-34v58a7.328,7.328,0,0,1-5,7,69.974,69.974,0,0,0-48,68.5c1,37,31.3,67.1,68.3,68a70,70,0,0,0,23.8-136.4A7.7,7.7,0,0,1,306.8,465.1Z" fill="#fff"/><path d="M306.8,465.1v-58h-34v58a7.328,7.328,0,0,1-5,7,69.974,69.974,0,0,0-48,68.5c1,37,31.3,67.1,68.3,68a70,70,0,0,0,23.8-136.4A7.7,7.7,0,0,1,306.8,465.1Z" fill="none" stroke="#133b4f" stroke-linecap="round" stroke-linejoin="round" stroke-miterlimit="10" stroke-width="4"/><path d="M347.3,521.5h0a13.461,13.461,0,0,0-21.5-7.7,9.832,9.832,0,0,0-5.6-1.8,9.129,9.129,0,0,0-5.4,1.7v-.8a9.5,9.5,0,0,0-9.5-9.5,9.98,9.98,0,0,0-4.2,1,18.5,18.5,0,0,0-33.8,10.4,33.236,33.236,0,0,0,1.3,6.8v-.3c0-6.1-6.3-11.6-12.3-11.6a11.032,11.032,0,0,0-11,11v.8H232.2a60.778,60.778,0,0,0-2.4,18.7,60.183,60.183,0,0,0,58.5,58.2h1.5a59.791,59.791,0,0,0,57.5-76.9Z" fill="#f6164c"/><path d="M347.3,521.5h0a13.461,13.461,0,0,0-21.5-7.7,9.832,9.832,0,0,0-5.6-1.8,9.129,9.129,0,0,0-5.4,1.7v-.8a9.5,9.5,0,0,0-9.5-9.5,9.98,9.98,0,0,0-4.2,1,18.5,18.5,0,0,0-33.8,10.4,33.236,33.236,0,0,0,1.3,6.8v-.3c0-6.1-6.3-11.6-12.3-11.6a11.032,11.032,0,0,0-11,11v.8H232.2a60.778,60.778,0,0,0-2.4,18.7,60.183,60.183,0,0,0,58.5,58.2h1.5a59.791,59.791,0,0,0,57.5-76.9Z" fill="none" stroke="#133b4f" stroke-linecap="round" stroke-linejoin="round" stroke-miterlimit="10" stroke-width="4"/><path d="M247.2,526.8a11.015,11.015,0,0,1,9.1-17.2c6.1,0,12.3,3,12.3,11" fill="none" stroke="#133b4f" stroke-linecap="round" stroke-linejoin="round" stroke-miterlimit="10" stroke-width="4"/><path d="M267.4,517.2a21.051,21.051,0,0,1-.2-2.5A18.5,18.5,0,0,1,301,504.3" fill="none" stroke="#133b4f" stroke-linecap="round" stroke-linejoin="round" stroke-miterlimit="10" stroke-width="4"/><path d="M296.2,509.7a9.468,9.468,0,0,1,4.8-5.4" fill="none" stroke="#133b4f" stroke-linecap="round" stroke-linejoin="round" stroke-miterlimit="10" stroke-width="4"/><path d="M301.1,504.3a9.979,9.979,0,0,1,4.2-1,9.5,9.5,0,0,1,9.5,9.5" fill="none" stroke="#133b4f" stroke-linecap="round" stroke-linejoin="round" stroke-miterlimit="10" stroke-width="4"/><path d="M316.2,512.8a9.022,9.022,0,0,1,4-.9,9.831,9.831,0,0,1,5.6,1.8" fill="none" stroke="#133b4f" stroke-linecap="round" stroke-linejoin="round" stroke-miterlimit="10" stroke-width="4"/><path d="M320.5,524.5a13.412,13.412,0,0,1,5.2-10.7" fill="none" stroke="#133b4f" stroke-linecap="round" stroke-linejoin="round" stroke-miterlimit="10" stroke-width="4"/><path d="M325.8,513.8a13.461,13.461,0,0,1,21.5,7.7" fill="none" stroke="#133b4f" stroke-linecap="round" stroke-linejoin="round" stroke-miterlimit="10" stroke-width="4"/><rect width="18.7" height="35.5" transform="translate(280.4 380)" fill="#ce7867"/><rect width="18.7" height="35.5" transform="translate(280.4 380)" fill="none" stroke="#133b4f" stroke-linecap="round" stroke-linejoin="round" stroke-miterlimit="10" stroke-width="4"/><path d="M310.8,407h-42a8.024,8.024,0,0,1-8-8h0a8.024,8.024,0,0,1,8-8h42a8.024,8.024,0,0,1,8,8h0A7.96,7.96,0,0,1,310.8,407Z" fill="#d8d8d8"/><path d="M310.8,407h-42a8.024,8.024,0,0,1-8-8h0a8.024,8.024,0,0,1,8-8h42a8.024,8.024,0,0,1,8,8h0A7.96,7.96,0,0,1,310.8,407Z" fill="none" stroke="#133b4f" stroke-linecap="round" stroke-linejoin="round" stroke-miterlimit="10" stroke-width="4"/><circle cx="7.5" cy="7.5" r="7.5" transform="translate(282.3 463.3)" fill="#f6164c"/><circle cx="7.5" cy="7.5" r="7.5" transform="translate(282.3 463.3)" fill="none" stroke="#133b4f" stroke-miterlimit="10" stroke-width="4"/><circle cx="4" cy="4" r="4" transform="translate(309.3 492)" fill="#f6164c"/><circle cx="4" cy="4" r="4" transform="translate(309.3 492)" fill="none" stroke="#133b4f" stroke-linecap="round" stroke-linejoin="round" stroke-miterlimit="10" stroke-width="4"/><circle cx="1.7" cy="1.7" r="1.7" transform="translate(271.1 485.9)" fill="none" stroke="#133b4f" stroke-linecap="round" stroke-linejoin="round" stroke-miterlimit="10" stroke-width="4"/><circle cx="4" cy="4" r="4" transform="translate(268.5 546.3)" fill="#133b4f"/><circle cx="6.4" cy="6.4" r="6.4" transform="translate(287.3 564.2)" fill="#133b4f"/><circle cx="2.3" cy="2.3" r="2.3" transform="translate(313.9 550.4)" fill="#133b4f"/><circle cx="1.6" cy="1.6" r="1.6" transform="translate(294.6 533.1)" fill="#133b4f"/><rect width="34" height="34" transform="translate(408.7 423.6)" fill="#6f8699"/><rect width="34" height="34" transform="translate(408.7 423.6)" fill="none" stroke="#133b4f" stroke-linecap="round" stroke-linejoin="round" stroke-miterlimit="10" stroke-width="4"/><path d="M589.5,654a4.012,4.012,0,0,1-4-4V520.3a39.3,39.3,0,0,1,78.6,0v90.2a4,4,0,0,1-8,0V520.3a31.3,31.3,0,0,0-62.6,0V650A4.012,4.012,0,0,1,589.5,654Z" fill="#fff"/><path d="M589.5,654a4.012,4.012,0,0,1-4-4V520.3a39.3,39.3,0,0,1,78.6,0v90.2a4,4,0,0,1-8,0V520.3a31.3,31.3,0,0,0-62.6,0V650A4.012,4.012,0,0,1,589.5,654Z" fill="none" stroke="#133b4f" stroke-linecap="round" stroke-linejoin="round" stroke-miterlimit="10" stroke-width="4"/><path d="M660.1,737h0a18.992,18.992,0,0,1-19-19V569h38V718A18.992,18.992,0,0,1,660.1,737Z" fill="#fff"/><path d="M660.1,737h0a18.992,18.992,0,0,1-19-19V569h38V718A18.992,18.992,0,0,1,660.1,737Z" fill="none" stroke="#133b4f" stroke-linecap="round" stroke-linejoin="round" stroke-miterlimit="10" stroke-width="4"/><rect width="31.5" height="35.7" transform="translate(644.4 533.3)" fill="#ce7867"/><rect width="31.5" height="35.7" transform="translate(644.4 533.3)" fill="none" stroke="#133b4f" stroke-linecap="round" stroke-linejoin="round" stroke-miterlimit="10" stroke-width="4"/><path d="M682.1,553h-44a8.023,8.023,0,0,0-8,8h0a8.023,8.023,0,0,0,8,8h44a8.023,8.023,0,0,0,8-8h0A8.023,8.023,0,0,0,682.1,553Z" fill="#d8d8d8"/><path d="M682.1,553h-44a8.023,8.023,0,0,0-8,8h0a8.023,8.023,0,0,0,8,8h44a8.023,8.023,0,0,0,8-8h0A8.023,8.023,0,0,0,682.1,553Z" fill="none" stroke="#133b4f" stroke-linecap="round" stroke-linejoin="round" stroke-miterlimit="10" stroke-width="4"/><path d="M650.1,687.2V718a10,10,0,0,0,20,0V687.2Z" fill="#984db2"/><path d="M650.1,687.2V718a10,10,0,0,0,20,0V687.2Z" fill="none" stroke="#133b4f" stroke-linecap="round" stroke-linejoin="round" stroke-miterlimit="10" stroke-width="4"/><circle cx="3" cy="3" r="3" transform="translate(653.8 658)" fill="#984db2"/><circle cx="3" cy="3" r="3" transform="translate(653.8 658)" fill="none" stroke="#133b4f" stroke-linecap="round" stroke-linejoin="round" stroke-miterlimit="10" stroke-width="4"/><circle cx="5" cy="5" r="5" transform="translate(656.8 625.8)" fill="#984db2"/><circle cx="5" cy="5" r="5" transform="translate(656.8 625.8)" fill="none" stroke="#133b4f" stroke-linecap="round" stroke-linejoin="round" stroke-miterlimit="10" stroke-width="4"/><circle cx="2" cy="2" r="2" transform="translate(660.4 674)" fill="#984db2"/><circle cx="2" cy="2" r="2" transform="translate(660.4 674)" fill="none" stroke="#133b4f" stroke-linecap="round" stroke-linejoin="round" stroke-miterlimit="10" stroke-width="4"/><circle cx="1.8" cy="1.8" r="1.8" transform="translate(656.7 707.6)" fill="#133b4f"/><circle cx="2.9" cy="2.9" r="2.9" transform="translate(656.6 696.3)" fill="#133b4f"/><rect width="31.5" height="35.7" transform="translate(565.6 533.3)" fill="#ce7867"/><rect width="31.5" height="35.7" transform="translate(565.6 533.3)" fill="none" stroke="#133b4f" stroke-linecap="round" stroke-linejoin="round" stroke-miterlimit="10" stroke-width="4"/><path d="M603.4,553h-44a8.023,8.023,0,0,0-8,8h0a8.023,8.023,0,0,0,8,8h44a8.023,8.023,0,0,0,8-8h0A8.024,8.024,0,0,0,603.4,553Z" fill="#d8d8d8"/><path d="M603.4,553h-44a8.023,8.023,0,0,0-8,8h0a8.023,8.023,0,0,0,8,8h44a8.023,8.023,0,0,0,8-8h0A8.024,8.024,0,0,0,603.4,553Z" fill="none" stroke="#133b4f" stroke-linecap="round" stroke-linejoin="round" stroke-miterlimit="10" stroke-width="4"/><path d="M581.4,737h0a18.992,18.992,0,0,1-19-19V569h38V718A18.992,18.992,0,0,1,581.4,737Z" fill="#fff"/><path d="M581.4,737h0a18.992,18.992,0,0,1-19-19V569h38V718A18.992,18.992,0,0,1,581.4,737Z" fill="none" stroke="#133b4f" stroke-linecap="round" stroke-linejoin="round" stroke-miterlimit="10" stroke-width="4"/><path d="M571.4,638.3V718a10,10,0,0,0,20,0V638.3Z" fill="#f3c50d"/><path d="M571.4,638.3V718a10,10,0,0,0,20,0V638.3Z" fill="none" stroke="#133b4f" stroke-linecap="round" stroke-linejoin="round" stroke-miterlimit="10" stroke-width="4"/><circle cx="2.9" cy="2.9" r="2.9" transform="translate(575.6 671.1)" fill="#133b4f"/><circle cx="1.9" cy="1.9" r="1.9" transform="translate(575.5 620.4)" fill="#133b4f"/><circle cx="1.2" cy="1.2" r="1.2" transform="translate(583.1 648.9)" fill="#133b4f"/><circle cx="1.2" cy="1.2" r="1.2" transform="translate(583.1 692.3)" fill="#133b4f"/><rect width="320" height="8" transform="translate(500.1 595)" fill="#dabc95"/><rect width="320" height="8" transform="translate(500.1 595)" fill="none" stroke="#133b4f" stroke-linecap="round" stroke-linejoin="round" stroke-miterlimit="10" stroke-width="4"/><rect width="17.2" height="88.2" transform="translate(371.1 362.4)" fill="#ce7867"/><rect width="17.2" height="88.2" transform="translate(371.1 362.4)" fill="none" stroke="#133b4f" stroke-linecap="round" stroke-linejoin="round" stroke-miterlimit="10" stroke-width="4"/><rect width="83.2" height="10" transform="translate(325.5 435.6)" fill="#6f8699"/><rect width="83.2" height="10" transform="translate(325.5 435.6)" fill="none" stroke="#133b4f" stroke-linecap="round" stroke-linejoin="round" stroke-miterlimit="10" stroke-width="4"/><path d="M259.8,453.6h60a12.974,12.974,0,0,0,13-13h0a12.974,12.974,0,0,0-13-13h-60a12.974,12.974,0,0,0-13,13h0A12.974,12.974,0,0,0,259.8,453.6Z" fill="#6f8699"/><path d="M259.8,453.6h60a12.974,12.974,0,0,0,13-13h0a12.974,12.974,0,0,0-13-13h-60a12.974,12.974,0,0,0-13,13h0A12.974,12.974,0,0,0,259.8,453.6Z" fill="none" stroke="#133b4f" stroke-linecap="round" stroke-linejoin="round" stroke-miterlimit="10" stroke-width="4"/><line x2="750" transform="translate(133.8 770)" fill="none" stroke="#133b4f" stroke-linecap="round" stroke-linejoin="round" stroke-miterlimit="10" stroke-width="6"/></g></svg>